<mxfile host="app.diagrams.net" modified="2023-12-03T12:32:17.531Z" agent="Mozilla/5.0 (Macintosh; Intel Mac OS X 10_15_7) AppleWebKit/537.36 (KHTML, like Gecko) Chrome/119.0.0.0 Safari/537.36 Edg/119.0.0.0" version="22.1.5" etag="1iUhw2OomZhDVpKlk58y" type="github">
  <diagram name="Page-1" id="q4BMSazMhjk1j_87QCtC">
    <mxGraphModel>
      <root>
        <mxCell id="0" />
        <mxCell id="1" parent="0" />
      </root>
    </mxGraphModel>
  </diagram>
</mxfile>
